<svg xmlns="http://www.w3.org/2000/svg" viewBox="0 0 32 32" width="32" height="32">
  <defs>
    <linearGradient id="shieldGrad" x1="0%" y1="0%" x2="100%" y2="100%">
      <stop offset="0%" stop-color="#818cf8"/>
      <stop offset="100%" stop-color="#4f46e5"/>
    </linearGradient>
    <linearGradient id="coreGrad" x1="0%" y1="0%" x2="100%" y2="100%">
      <stop offset="0%" stop-color="#38bdf8"/>
      <stop offset="100%" stop-color="#0284c7"/>
    </linearGradient>
  </defs>
  <!-- Background Shield -->
  <path d="M16 2 L28 6 V15 C28 22.5 22.8 28.2 16 30 C9.2 28.2 4 22.5 4 15 V6 Z" fill="#0f172a" stroke="url(#shieldGrad)" stroke-width="2" stroke-linejoin="round"/>
  <!-- Inner Shield Core -->
  <path d="M16 6 L24 9.5 V15 C24 20.2 20.6 24.5 16 26 C11.4 24.5 8 20.2 8 15 V9.5 Z" fill="url(#shieldGrad)" opacity="0.25"/>
  <!-- Central Pulse / Sensor Core -->
  <circle cx="16" cy="15" r="3.5" fill="url(#coreGrad)"/>
  <path d="M16 9 V11.5 M16 18.5 V21 M10 15 H12.5 M19.5 15 H22" stroke="#38bdf8" stroke-width="1.5" stroke-linecap="round"/>
</svg>